<svg width="237" height="36" viewBox="0 0 237 36" fill="none" xmlns="http://www.w3.org/2000/svg">
<path d="M9.1638 35.44C15.1038 35.44 18.9318 32.536 18.9318 27.388C18.9318 22.592 16.0718 20.788 10.7918 19.028C7.8878 18.016 6.5678 17.268 6.5678 15.42C6.5678 13.748 7.8438 12.692 9.7358 12.692C12.8158 12.692 14.7518 15.244 15.2798 18.148H17.1718V12.868C15.2798 11.636 12.5958 10.844 9.6038 10.844C4.32379 10.844 0.539795 13.616 0.539795 18.544C0.539795 23.032 3.22379 25.1 8.1958 26.64C11.1878 27.608 12.9038 28.356 12.9038 30.6C12.9038 32.58 11.2318 33.592 9.1638 33.592C5.7318 33.592 3.44379 30.864 2.5638 27.256H0.539795L0.803795 33.196C2.6958 34.56 5.5118 35.44 9.1638 35.44Z" fill="black"/>
<path d="M33.7794 33.592C30.9634 33.592 29.9074 28.884 29.9074 21.668C29.9074 16.08 30.7434 12.692 33.3834 12.692C36.2434 12.692 37.2554 17.4 37.2554 24.616C37.2554 30.204 36.4194 33.592 33.7794 33.592ZM33.5594 35.44C40.7754 35.44 45.8794 30.072 45.8794 22.68C45.8794 15.464 40.8634 10.844 33.6034 10.844C26.3874 10.844 21.2834 16.212 21.2834 23.604C21.2834 30.82 26.2994 35.44 33.5594 35.44Z" fill="black"/>
<path d="M78.6852 31.568C78.6852 32.976 78.2452 33.152 76.4852 33.284V35H89.2452V33.284C87.5292 33.152 86.8252 32.976 86.8252 31.568V17.84C86.8252 13.22 84.5372 10.844 80.4452 10.844C76.6612 10.844 73.9772 13.044 72.3932 15.42C71.7772 12.208 69.6652 10.844 66.2772 10.844C62.3612 10.844 59.9852 12.912 58.3132 15.332L58.4892 10.844H56.9932L47.7972 13.396V14.628L50.2172 16.124V31.568C50.2172 32.976 49.5132 33.152 47.7532 33.284V35H60.5572V33.284C58.7972 33.152 58.3132 32.976 58.3132 31.568V16.608C59.4132 16.036 60.4692 15.596 61.8332 15.596C63.8132 15.596 64.4292 16.696 64.4292 18.588V31.568C64.4292 32.976 63.9892 33.152 62.2292 33.284V35H74.7692V33.284C73.0092 33.152 72.5692 32.976 72.5692 31.568V16.608C73.6692 16.08 74.7252 15.596 76.0452 15.596C78.0692 15.596 78.6852 16.696 78.6852 18.588V31.568Z" fill="black"/>
<path d="M102.297 10.844C95.961 10.844 90.549 15.86 90.549 23.692C90.549 31.084 95.477 35.44 101.989 35.44C107.533 35.44 110.921 32.228 112.109 27.388L111.273 26.86C109.601 29.06 107.533 30.072 104.717 30.072C100.713 30.072 97.809 26.816 97.897 21.58H111.933V20.48C111.933 14.892 108.677 10.844 102.297 10.844ZM101.769 12.692C104.145 12.692 104.981 15.288 104.981 19.556H97.941C98.161 15.464 99.349 12.692 101.769 12.692Z" fill="black"/>
<path d="M113.976 30.908C113.976 33.592 116 35.44 118.508 35.44C121.06 35.44 123.04 33.592 123.04 30.908C123.04 28.224 121.06 26.332 118.508 26.332C116 26.332 113.976 28.224 113.976 30.908Z" fill="black"/>
<path d="M135.872 10.844H134.508L125.356 13.396V14.628L127.776 16.124V31.568C127.776 32.976 127.072 33.152 125.312 33.284V35H138.336V33.284C136.576 33.152 135.872 32.976 135.872 31.568V10.844ZM131.912 8.908C134.552 8.908 136.224 7.01601 136.224 4.81601C136.224 2.61601 134.552 0.768005 131.912 0.768005C129.184 0.768005 127.6 2.61601 127.6 4.81601C127.6 7.01601 129.184 8.908 131.912 8.908Z" fill="black"/>
<path d="M147.003 20.832C147.003 16.3 148.587 12.824 151.315 12.824C153.427 12.824 154.131 14.584 154.131 17.136C154.131 17.928 154.087 18.676 153.955 19.644H158.135C159.103 19.204 160.071 18.104 160.071 16.432C160.071 12.56 156.463 10.844 152.019 10.844C144.715 10.844 139.963 16.432 139.963 23.868C139.963 31.084 144.671 35.44 150.787 35.44C155.715 35.44 159.279 33.02 160.731 27.652L159.763 27.036C158.355 29.06 156.507 29.94 153.911 29.94C149.511 29.94 147.003 26.464 147.003 20.832Z" fill="black"/>
<path d="M174.631 33.592C171.815 33.592 170.759 28.884 170.759 21.668C170.759 16.08 171.595 12.692 174.235 12.692C177.095 12.692 178.107 17.4 178.107 24.616C178.107 30.204 177.271 33.592 174.631 33.592ZM174.411 35.44C181.627 35.44 186.731 30.072 186.731 22.68C186.731 15.464 181.715 10.844 174.455 10.844C167.239 10.844 162.135 16.212 162.135 23.604C162.135 30.82 167.151 35.44 174.411 35.44Z" fill="black"/>
<path d="M205.897 31.568C205.897 32.976 205.325 33.152 203.565 33.284V35H216.501V33.284C214.741 33.152 214.037 32.976 214.037 31.568V18.06C214.037 13.22 211.617 10.844 207.349 10.844C203.389 10.844 200.837 13.132 199.165 15.244L199.341 10.844H197.845L188.649 13.396V14.628L191.069 16.124V31.568C191.069 32.976 190.365 33.152 188.605 33.284V35H201.541V33.284C199.781 33.152 199.165 32.976 199.165 31.568V16.608C200.309 16.036 201.541 15.64 202.949 15.64C205.237 15.64 205.897 16.784 205.897 18.72V31.568Z" fill="black"/>
<path d="M226.843 35.44C232.783 35.44 236.611 32.536 236.611 27.388C236.611 22.592 233.751 20.788 228.471 19.028C225.567 18.016 224.247 17.268 224.247 15.42C224.247 13.748 225.523 12.692 227.415 12.692C230.495 12.692 232.431 15.244 232.959 18.148H234.851V12.868C232.959 11.636 230.275 10.844 227.283 10.844C222.003 10.844 218.219 13.616 218.219 18.544C218.219 23.032 220.903 25.1 225.875 26.64C228.867 27.608 230.583 28.356 230.583 30.6C230.583 32.58 228.911 33.592 226.843 33.592C223.411 33.592 221.123 30.864 220.243 27.256H218.219L218.483 33.196C220.375 34.56 223.191 35.44 226.843 35.44Z" fill="black"/>
</svg>
