<svg width="1440" height="410" viewBox="0 0 1440 410" fill="none" xmlns="http://www.w3.org/2000/svg">
<g clip-path="url(#clip0)">
<rect width="1440" height="410" fill="white"/>
<path fill-rule="evenodd" clip-rule="evenodd" d="M975 349C1062.81 349 1134 277.813 1134 190C1134 102.187 1062.81 31 975 31C887.187 31 816 102.187 816 190C816 277.813 887.187 349 975 349ZM975 369C1073.86 369 1154 288.859 1154 190C1154 91.141 1073.86 11 975 11C876.141 11 796 91.141 796 190C796 288.859 876.141 369 975 369Z" fill="#6AD7FA" fill-opacity="0.3"/>
<path d="M611.164 195.44C617.104 195.44 620.932 192.536 620.932 187.388C620.932 182.592 618.072 180.788 612.792 179.028C609.888 178.016 608.568 177.268 608.568 175.42C608.568 173.748 609.844 172.692 611.736 172.692C614.816 172.692 616.752 175.244 617.28 178.148H619.172V172.868C617.28 171.636 614.596 170.844 611.604 170.844C606.324 170.844 602.54 173.616 602.54 178.544C602.54 183.032 605.224 185.1 610.196 186.64C613.188 187.608 614.904 188.356 614.904 190.6C614.904 192.58 613.232 193.592 611.164 193.592C607.732 193.592 605.444 190.864 604.564 187.256H602.54L602.804 193.196C604.696 194.56 607.512 195.44 611.164 195.44Z" fill="black"/>
<path d="M635.779 193.592C632.963 193.592 631.907 188.884 631.907 181.668C631.907 176.08 632.743 172.692 635.383 172.692C638.243 172.692 639.255 177.4 639.255 184.616C639.255 190.204 638.419 193.592 635.779 193.592ZM635.559 195.44C642.775 195.44 647.879 190.072 647.879 182.68C647.879 175.464 642.863 170.844 635.603 170.844C628.387 170.844 623.283 176.212 623.283 183.604C623.283 190.82 628.299 195.44 635.559 195.44Z" fill="black"/>
<path d="M680.685 191.568C680.685 192.976 680.245 193.152 678.485 193.284V195H691.245V193.284C689.529 193.152 688.825 192.976 688.825 191.568V177.84C688.825 173.22 686.537 170.844 682.445 170.844C678.661 170.844 675.977 173.044 674.393 175.42C673.777 172.208 671.665 170.844 668.277 170.844C664.361 170.844 661.985 172.912 660.313 175.332L660.489 170.844H658.993L649.797 173.396V174.628L652.217 176.124V191.568C652.217 192.976 651.513 193.152 649.753 193.284V195H662.557V193.284C660.797 193.152 660.313 192.976 660.313 191.568V176.608C661.413 176.036 662.469 175.596 663.833 175.596C665.813 175.596 666.429 176.696 666.429 178.588V191.568C666.429 192.976 665.989 193.152 664.229 193.284V195H676.769V193.284C675.009 193.152 674.569 192.976 674.569 191.568V176.608C675.669 176.08 676.725 175.596 678.045 175.596C680.069 175.596 680.685 176.696 680.685 178.588V191.568Z" fill="black"/>
<path d="M704.297 170.844C697.961 170.844 692.549 175.86 692.549 183.692C692.549 191.084 697.477 195.44 703.989 195.44C709.533 195.44 712.921 192.228 714.109 187.388L713.273 186.86C711.601 189.06 709.533 190.072 706.717 190.072C702.713 190.072 699.809 186.816 699.897 181.58H713.933V180.48C713.933 174.892 710.677 170.844 704.297 170.844ZM703.769 172.692C706.145 172.692 706.981 175.288 706.981 179.556H699.941C700.161 175.464 701.349 172.692 703.769 172.692Z" fill="black"/>
<path d="M715.976 190.908C715.976 193.592 718 195.44 720.508 195.44C723.06 195.44 725.04 193.592 725.04 190.908C725.04 188.224 723.06 186.332 720.508 186.332C718 186.332 715.976 188.224 715.976 190.908Z" fill="black"/>
<path d="M737.872 170.844H736.508L727.356 173.396V174.628L729.776 176.124V191.568C729.776 192.976 729.072 193.152 727.312 193.284V195H740.336V193.284C738.576 193.152 737.872 192.976 737.872 191.568V170.844ZM733.912 168.908C736.552 168.908 738.224 167.016 738.224 164.816C738.224 162.616 736.552 160.768 733.912 160.768C731.184 160.768 729.6 162.616 729.6 164.816C729.6 167.016 731.184 168.908 733.912 168.908Z" fill="black"/>
<path d="M749.003 180.832C749.003 176.3 750.587 172.824 753.315 172.824C755.427 172.824 756.131 174.584 756.131 177.136C756.131 177.928 756.087 178.676 755.955 179.644H760.135C761.103 179.204 762.071 178.104 762.071 176.432C762.071 172.56 758.463 170.844 754.019 170.844C746.715 170.844 741.963 176.432 741.963 183.868C741.963 191.084 746.671 195.44 752.787 195.44C757.715 195.44 761.279 193.02 762.731 187.652L761.763 187.036C760.355 189.06 758.507 189.94 755.911 189.94C751.511 189.94 749.003 186.464 749.003 180.832Z" fill="black"/>
<path d="M776.631 193.592C773.815 193.592 772.759 188.884 772.759 181.668C772.759 176.08 773.595 172.692 776.235 172.692C779.095 172.692 780.107 177.4 780.107 184.616C780.107 190.204 779.271 193.592 776.631 193.592ZM776.411 195.44C783.627 195.44 788.731 190.072 788.731 182.68C788.731 175.464 783.715 170.844 776.455 170.844C769.239 170.844 764.135 176.212 764.135 183.604C764.135 190.82 769.151 195.44 776.411 195.44Z" fill="black"/>
<path d="M807.897 191.568C807.897 192.976 807.325 193.152 805.565 193.284V195H818.501V193.284C816.741 193.152 816.037 192.976 816.037 191.568V178.06C816.037 173.22 813.617 170.844 809.349 170.844C805.389 170.844 802.837 173.132 801.165 175.244L801.341 170.844H799.845L790.649 173.396V174.628L793.069 176.124V191.568C793.069 192.976 792.365 193.152 790.605 193.284V195H803.541V193.284C801.781 193.152 801.165 192.976 801.165 191.568V176.608C802.309 176.036 803.541 175.64 804.949 175.64C807.237 175.64 807.897 176.784 807.897 178.72V191.568Z" fill="black"/>
<path d="M828.843 195.44C834.783 195.44 838.611 192.536 838.611 187.388C838.611 182.592 835.751 180.788 830.471 179.028C827.567 178.016 826.247 177.268 826.247 175.42C826.247 173.748 827.523 172.692 829.415 172.692C832.495 172.692 834.431 175.244 834.959 178.148H836.851V172.868C834.959 171.636 832.275 170.844 829.283 170.844C824.003 170.844 820.219 173.616 820.219 178.544C820.219 183.032 822.903 185.1 827.875 186.64C830.867 187.608 832.583 188.356 832.583 190.6C832.583 192.58 830.911 193.592 828.843 193.592C825.411 193.592 823.123 190.864 822.243 187.256H820.219L820.483 193.196C822.375 194.56 825.191 195.44 828.843 195.44Z" fill="black"/>
<path d="M383.94 249.767V251H376.785V249.767H379.836V240.245L376.992 241.973L376.335 240.893L380.025 238.607H381.348V249.767H383.94Z" fill="black"/>
<path d="M394.184 238.607L393.959 239.813H389.063V243.719C389.441 243.521 389.798 243.383 390.134 243.305C390.476 243.227 390.833 243.188 391.205 243.188C392.213 243.188 393.029 243.527 393.653 244.205C394.277 244.883 394.589 245.84 394.589 247.076C394.589 247.904 394.415 248.627 394.067 249.245C393.725 249.863 393.239 250.346 392.609 250.694C391.985 251.036 391.247 251.207 390.395 251.207C389.651 251.207 388.985 251.075 388.397 250.811C387.815 250.547 387.284 250.181 386.804 249.713L387.74 248.813C388.478 249.575 389.369 249.956 390.413 249.956C391.229 249.956 391.865 249.71 392.321 249.218C392.777 248.72 393.005 247.991 393.005 247.031C393.005 246.365 392.906 245.84 392.708 245.456C392.51 245.072 392.24 244.799 391.898 244.637C391.562 244.469 391.187 244.385 390.773 244.385C390.407 244.385 390.083 244.421 389.801 244.493C389.519 244.565 389.198 244.667 388.838 244.799H387.623V238.607H394.184Z" fill="black"/>
<path d="M401.062 238.409C401.842 238.409 402.511 238.562 403.069 238.868C403.627 239.168 404.053 239.579 404.347 240.101C404.647 240.623 404.797 241.211 404.797 241.865C404.797 242.435 404.698 242.993 404.5 243.539C404.302 244.079 403.984 244.649 403.546 245.249C403.114 245.843 402.544 246.503 401.836 247.229C401.128 247.955 400.264 248.783 399.244 249.713H405.085L404.896 251H397.525V249.767C398.695 248.645 399.649 247.697 400.387 246.923C401.131 246.149 401.707 245.483 402.115 244.925C402.523 244.361 402.805 243.845 402.961 243.377C403.123 242.909 403.204 242.423 403.204 241.919C403.204 241.223 403.009 240.674 402.619 240.272C402.229 239.87 401.686 239.669 400.99 239.669C400.378 239.669 399.877 239.774 399.487 239.984C399.097 240.194 398.707 240.53 398.317 240.992L397.273 240.182C397.765 239.582 398.308 239.138 398.902 238.85C399.502 238.556 400.222 238.409 401.062 238.409Z" fill="black"/>
<path d="M425.6 247.841H420.695L419.705 251H418.166L422.198 238.607H424.196L428.228 251H426.59L425.6 247.841ZM421.1 246.545H425.195L423.161 239.921L421.1 246.545Z" fill="black"/>
<path d="M437.419 251H435.277L434.053 244.043L432.721 251H430.633L428.905 241.523H430.453L431.659 250.064L433.171 242.729H434.962L436.393 250.064L437.599 241.523H439.075L437.419 251Z" fill="black"/>
<path d="M442.38 246.797C442.422 247.895 442.71 248.696 443.244 249.2C443.784 249.698 444.42 249.947 445.152 249.947C445.638 249.947 446.076 249.875 446.466 249.731C446.856 249.587 447.261 249.374 447.681 249.092L448.392 250.091C447.954 250.439 447.45 250.712 446.88 250.91C446.31 251.108 445.728 251.207 445.134 251.207C444.21 251.207 443.424 251 442.776 250.586C442.134 250.172 441.642 249.596 441.3 248.858C440.964 248.114 440.796 247.253 440.796 246.275C440.796 245.315 440.964 244.463 441.3 243.719C441.642 242.975 442.122 242.39 442.74 241.964C443.364 241.538 444.096 241.325 444.936 241.325C446.13 241.325 447.069 241.739 447.753 242.567C448.443 243.395 448.788 244.529 448.788 245.969C448.788 246.131 448.782 246.284 448.77 246.428C448.764 246.572 448.758 246.695 448.752 246.797H442.38ZM444.954 242.567C444.252 242.567 443.664 242.816 443.19 243.314C442.716 243.812 442.449 244.583 442.389 245.627H447.33C447.312 244.613 447.09 243.851 446.664 243.341C446.238 242.825 445.668 242.567 444.954 242.567Z" fill="black"/>
<path d="M455.207 249.956C455.939 249.956 456.515 249.821 456.935 249.551C457.355 249.281 457.565 248.915 457.565 248.453C457.565 248.171 457.511 247.925 457.403 247.715C457.301 247.505 457.088 247.316 456.764 247.148C456.44 246.974 455.942 246.803 455.27 246.635C454.616 246.473 454.046 246.287 453.56 246.077C453.08 245.861 452.705 245.582 452.435 245.24C452.171 244.898 452.039 244.454 452.039 243.908C452.039 243.11 452.372 242.48 453.038 242.018C453.704 241.556 454.571 241.325 455.639 241.325C456.401 241.325 457.064 241.427 457.628 241.631C458.198 241.835 458.681 242.081 459.077 242.369L458.411 243.395C458.057 243.149 457.661 242.948 457.223 242.792C456.791 242.63 456.269 242.549 455.657 242.549C454.913 242.549 454.385 242.666 454.073 242.9C453.761 243.128 453.605 243.425 453.605 243.791C453.605 244.073 453.68 244.307 453.83 244.493C453.986 244.673 454.247 244.835 454.613 244.979C454.979 245.123 455.483 245.282 456.125 245.456C456.743 245.624 457.283 245.822 457.745 246.05C458.207 246.278 458.564 246.578 458.816 246.95C459.074 247.316 459.203 247.793 459.203 248.381C459.203 249.053 459.011 249.599 458.627 250.019C458.243 250.433 457.745 250.736 457.133 250.928C456.527 251.114 455.885 251.207 455.207 251.207C454.349 251.207 453.617 251.084 453.011 250.838C452.411 250.586 451.907 250.283 451.499 249.929L452.363 248.93C452.735 249.236 453.161 249.485 453.641 249.677C454.127 249.863 454.649 249.956 455.207 249.956Z" fill="black"/>
<path d="M466.387 241.325C467.725 241.325 468.736 241.772 469.42 242.666C470.104 243.56 470.446 244.757 470.446 246.257C470.446 247.223 470.29 248.078 469.978 248.822C469.666 249.566 469.207 250.151 468.601 250.577C467.995 250.997 467.251 251.207 466.369 251.207C465.031 251.207 464.017 250.757 463.327 249.857C462.637 248.957 462.292 247.763 462.292 246.275C462.292 245.303 462.448 244.445 462.76 243.701C463.072 242.951 463.531 242.369 464.137 241.955C464.749 241.535 465.499 241.325 466.387 241.325ZM466.387 242.558C465.571 242.558 464.953 242.861 464.533 243.467C464.119 244.073 463.912 245.009 463.912 246.275C463.912 247.529 464.116 248.459 464.524 249.065C464.938 249.665 465.553 249.965 466.369 249.965C467.185 249.965 467.797 249.662 468.205 249.056C468.619 248.45 468.826 247.517 468.826 246.257C468.826 244.997 468.622 244.067 468.214 243.467C467.806 242.861 467.197 242.558 466.387 242.558Z" fill="black"/>
<path d="M479.817 241.325C480.117 241.325 480.408 241.391 480.69 241.523C480.972 241.655 481.203 241.91 481.383 242.288C481.563 242.666 481.653 243.218 481.653 243.944V251H480.249V244.187C480.249 243.593 480.213 243.164 480.141 242.9C480.069 242.636 479.862 242.504 479.52 242.504C479.238 242.504 478.956 242.594 478.674 242.774C478.392 242.948 478.122 243.236 477.864 243.638V251H476.451V244.187C476.451 243.593 476.415 243.164 476.343 242.9C476.271 242.636 476.064 242.504 475.722 242.504C475.428 242.504 475.143 242.594 474.867 242.774C474.591 242.948 474.324 243.236 474.066 243.638V251H472.671V241.523H473.859L473.949 242.621C474.207 242.255 474.495 241.949 474.813 241.703C475.137 241.451 475.536 241.325 476.01 241.325C476.37 241.325 476.709 241.412 477.027 241.586C477.345 241.754 477.579 242.084 477.729 242.576C477.987 242.204 478.278 241.904 478.602 241.676C478.926 241.442 479.331 241.325 479.817 241.325Z" fill="black"/>
<path d="M485.552 246.797C485.594 247.895 485.882 248.696 486.416 249.2C486.956 249.698 487.592 249.947 488.324 249.947C488.81 249.947 489.248 249.875 489.638 249.731C490.028 249.587 490.433 249.374 490.853 249.092L491.564 250.091C491.126 250.439 490.622 250.712 490.052 250.91C489.482 251.108 488.9 251.207 488.306 251.207C487.382 251.207 486.596 251 485.948 250.586C485.306 250.172 484.814 249.596 484.472 248.858C484.136 248.114 483.968 247.253 483.968 246.275C483.968 245.315 484.136 244.463 484.472 243.719C484.814 242.975 485.294 242.39 485.912 241.964C486.536 241.538 487.268 241.325 488.108 241.325C489.302 241.325 490.241 241.739 490.925 242.567C491.615 243.395 491.96 244.529 491.96 245.969C491.96 246.131 491.954 246.284 491.942 246.428C491.936 246.572 491.93 246.695 491.924 246.797H485.552ZM488.126 242.567C487.424 242.567 486.836 242.816 486.362 243.314C485.888 243.812 485.621 244.583 485.561 245.627H490.502C490.484 244.613 490.262 243.851 489.836 243.341C489.41 242.825 488.84 242.567 488.126 242.567Z" fill="black"/>
<path d="M508.182 239.885V244.223H513.042V245.483H508.182V251H506.634V238.607H513.933L513.744 239.885H508.182Z" fill="black"/>
<path d="M516.833 251V249.839H518.309V242.684H516.833V241.523H519.461L519.74 243.764C520.106 242.984 520.55 242.381 521.072 241.955C521.594 241.529 522.284 241.316 523.142 241.316C523.406 241.316 523.64 241.337 523.844 241.379C524.054 241.415 524.267 241.463 524.483 241.523L524.267 244.727H523.025V242.711C523.001 242.711 522.974 242.711 522.944 242.711C521.492 242.711 520.451 243.749 519.821 245.825V249.839H521.747V251H516.833Z" fill="black"/>
<path d="M528.724 246.797C528.766 247.895 529.054 248.696 529.588 249.2C530.128 249.698 530.764 249.947 531.496 249.947C531.982 249.947 532.42 249.875 532.81 249.731C533.2 249.587 533.605 249.374 534.025 249.092L534.736 250.091C534.298 250.439 533.794 250.712 533.224 250.91C532.654 251.108 532.072 251.207 531.478 251.207C530.554 251.207 529.768 251 529.12 250.586C528.478 250.172 527.986 249.596 527.644 248.858C527.308 248.114 527.14 247.253 527.14 246.275C527.14 245.315 527.308 244.463 527.644 243.719C527.986 242.975 528.466 242.39 529.084 241.964C529.708 241.538 530.44 241.325 531.28 241.325C532.474 241.325 533.413 241.739 534.097 242.567C534.787 243.395 535.132 244.529 535.132 245.969C535.132 246.131 535.126 246.284 535.114 246.428C535.108 246.572 535.102 246.695 535.096 246.797H528.724ZM531.298 242.567C530.596 242.567 530.008 242.816 529.534 243.314C529.06 243.812 528.793 244.583 528.733 245.627H533.674C533.656 244.613 533.434 243.851 533.008 243.341C532.582 242.825 532.012 242.567 531.298 242.567Z" fill="black"/>
<path d="M539.516 246.797C539.558 247.895 539.846 248.696 540.38 249.2C540.92 249.698 541.556 249.947 542.288 249.947C542.774 249.947 543.212 249.875 543.602 249.731C543.992 249.587 544.397 249.374 544.817 249.092L545.528 250.091C545.09 250.439 544.586 250.712 544.016 250.91C543.446 251.108 542.864 251.207 542.27 251.207C541.346 251.207 540.56 251 539.912 250.586C539.27 250.172 538.778 249.596 538.436 248.858C538.1 248.114 537.932 247.253 537.932 246.275C537.932 245.315 538.1 244.463 538.436 243.719C538.778 242.975 539.258 242.39 539.876 241.964C540.5 241.538 541.232 241.325 542.072 241.325C543.266 241.325 544.205 241.739 544.889 242.567C545.579 243.395 545.924 244.529 545.924 245.969C545.924 246.131 545.918 246.284 545.906 246.428C545.9 246.572 545.894 246.695 545.888 246.797H539.516ZM542.09 242.567C541.388 242.567 540.8 242.816 540.326 243.314C539.852 243.812 539.585 244.583 539.525 245.627H544.466C544.448 244.613 544.226 243.851 543.8 243.341C543.374 242.825 542.804 242.567 542.09 242.567Z" fill="black"/>
<path d="M560.544 251V238.607H562.11V249.605H567.762L567.582 251H560.544Z" fill="black"/>
<path d="M574.298 237.086C574.634 237.086 574.901 237.188 575.099 237.392C575.303 237.596 575.405 237.845 575.405 238.139C575.405 238.445 575.303 238.703 575.099 238.913C574.901 239.117 574.634 239.219 574.298 239.219C573.98 239.219 573.719 239.117 573.515 238.913C573.311 238.703 573.209 238.445 573.209 238.139C573.209 237.845 573.311 237.596 573.515 237.392C573.719 237.188 573.98 237.086 574.298 237.086ZM575.504 241.523V249.803H578.177V251H571.067V249.803H573.992V242.72H571.157V241.523H575.504Z" fill="black"/>
<path d="M581.5 251V241.523H582.787L582.904 242.837C583.288 242.351 583.768 241.979 584.344 241.721C584.92 241.457 585.484 241.325 586.036 241.325C586.966 241.325 587.641 241.571 588.061 242.063C588.487 242.555 588.7 243.239 588.7 244.115V251H587.188V245.231C587.188 244.583 587.152 244.061 587.08 243.665C587.008 243.269 586.855 242.978 586.621 242.792C586.393 242.606 586.042 242.513 585.568 242.513C585.196 242.513 584.845 242.594 584.515 242.756C584.191 242.918 583.9 243.122 583.642 243.368C583.39 243.608 583.18 243.851 583.012 244.097V251H581.5Z" fill="black"/>
<path d="M593.481 246.797C593.523 247.895 593.811 248.696 594.345 249.2C594.885 249.698 595.521 249.947 596.253 249.947C596.739 249.947 597.177 249.875 597.567 249.731C597.957 249.587 598.362 249.374 598.782 249.092L599.493 250.091C599.055 250.439 598.551 250.712 597.981 250.91C597.411 251.108 596.829 251.207 596.235 251.207C595.311 251.207 594.525 251 593.877 250.586C593.235 250.172 592.743 249.596 592.401 248.858C592.065 248.114 591.897 247.253 591.897 246.275C591.897 245.315 592.065 244.463 592.401 243.719C592.743 242.975 593.223 242.39 593.841 241.964C594.465 241.538 595.197 241.325 596.037 241.325C597.231 241.325 598.17 241.739 598.854 242.567C599.544 243.395 599.889 244.529 599.889 245.969C599.889 246.131 599.883 246.284 599.871 246.428C599.865 246.572 599.859 246.695 599.853 246.797H593.481ZM596.055 242.567C595.353 242.567 594.765 242.816 594.291 243.314C593.817 243.812 593.55 244.583 593.49 245.627H598.431C598.413 244.613 598.191 243.851 597.765 243.341C597.339 242.825 596.769 242.567 596.055 242.567Z" fill="black"/>
<path d="M603.446 252.854L602.222 252.314L609.926 236.429L611.132 237.023L603.446 252.854Z" fill="black"/>
<path d="M621.727 247.571C621.727 248.639 621.331 249.512 620.539 250.19C619.753 250.868 618.64 251.207 617.2 251.207C616.294 251.207 615.472 251.069 614.734 250.793C614.002 250.517 613.375 250.127 612.853 249.623L613.78 248.579C614.206 248.981 614.698 249.302 615.256 249.542C615.814 249.776 616.471 249.893 617.227 249.893C617.731 249.893 618.202 249.812 618.64 249.65C619.078 249.482 619.432 249.23 619.702 248.894C619.972 248.552 620.107 248.12 620.107 247.598C620.107 247.202 620.029 246.863 619.873 246.581C619.717 246.293 619.441 246.041 619.045 245.825C618.649 245.603 618.097 245.387 617.389 245.177C616.573 244.937 615.865 244.667 615.265 244.367C614.671 244.061 614.209 243.689 613.879 243.251C613.555 242.807 613.393 242.255 613.393 241.595C613.393 240.977 613.564 240.428 613.906 239.948C614.248 239.468 614.719 239.093 615.319 238.823C615.925 238.547 616.621 238.409 617.407 238.409C618.265 238.409 619.009 238.532 619.639 238.778C620.275 239.018 620.851 239.366 621.367 239.822L620.449 240.839C620.005 240.449 619.528 240.164 619.018 239.984C618.508 239.804 617.989 239.714 617.461 239.714C616.783 239.714 616.201 239.864 615.715 240.164C615.229 240.464 614.986 240.923 614.986 241.541C614.986 241.901 615.082 242.21 615.274 242.468C615.466 242.72 615.79 242.954 616.246 243.17C616.702 243.386 617.323 243.608 618.109 243.836C618.751 244.022 619.345 244.256 619.891 244.538C620.443 244.814 620.887 245.192 621.223 245.672C621.559 246.146 621.727 246.779 621.727 247.571Z" fill="black"/>
<path d="M632.196 250.523C631.872 250.739 631.479 250.907 631.017 251.027C630.555 251.147 630.102 251.207 629.658 251.207C628.638 251.207 627.852 250.94 627.3 250.406C626.748 249.872 626.472 249.185 626.472 248.345V242.693H624.294V241.523H626.472V239.372L627.984 239.192V241.523H631.26L631.08 242.693H627.984V248.327C627.984 248.855 628.122 249.257 628.398 249.533C628.68 249.809 629.145 249.947 629.793 249.947C630.147 249.947 630.474 249.905 630.774 249.821C631.074 249.737 631.353 249.629 631.611 249.497L632.196 250.523Z" fill="black"/>
<path d="M635.555 251V249.839H637.031V242.684H635.555V241.523H638.183L638.462 243.764C638.828 242.984 639.272 242.381 639.794 241.955C640.316 241.529 641.006 241.316 641.864 241.316C642.128 241.316 642.362 241.337 642.566 241.379C642.776 241.415 642.989 241.463 643.205 241.523L642.989 244.727H641.747V242.711C641.723 242.711 641.696 242.711 641.666 242.711C640.214 242.711 639.173 243.749 638.543 245.825V249.839H640.469V251H635.555Z" fill="black"/>
<path d="M649.867 241.325C651.205 241.325 652.216 241.772 652.9 242.666C653.584 243.56 653.926 244.757 653.926 246.257C653.926 247.223 653.77 248.078 653.458 248.822C653.146 249.566 652.687 250.151 652.081 250.577C651.475 250.997 650.731 251.207 649.849 251.207C648.511 251.207 647.497 250.757 646.807 249.857C646.117 248.957 645.772 247.763 645.772 246.275C645.772 245.303 645.928 244.445 646.24 243.701C646.552 242.951 647.011 242.369 647.617 241.955C648.229 241.535 648.979 241.325 649.867 241.325ZM649.867 242.558C649.051 242.558 648.433 242.861 648.013 243.467C647.599 244.073 647.392 245.009 647.392 246.275C647.392 247.529 647.596 248.459 648.004 249.065C648.418 249.665 649.033 249.965 649.849 249.965C650.665 249.965 651.277 249.662 651.685 249.056C652.099 248.45 652.306 247.517 652.306 246.257C652.306 244.997 652.102 244.067 651.694 243.467C651.286 242.861 650.677 242.558 649.867 242.558Z" fill="black"/>
<path d="M658.662 237.518V251H657.15V237.707L658.662 237.518ZM664.989 241.523L660.723 245.789L665.484 251H663.495L658.833 245.825L663.027 241.523H664.989Z" fill="black"/>
<path d="M669.032 246.797C669.074 247.895 669.362 248.696 669.896 249.2C670.436 249.698 671.072 249.947 671.804 249.947C672.29 249.947 672.728 249.875 673.118 249.731C673.508 249.587 673.913 249.374 674.333 249.092L675.044 250.091C674.606 250.439 674.102 250.712 673.532 250.91C672.962 251.108 672.38 251.207 671.786 251.207C670.862 251.207 670.076 251 669.428 250.586C668.786 250.172 668.294 249.596 667.952 248.858C667.616 248.114 667.448 247.253 667.448 246.275C667.448 245.315 667.616 244.463 667.952 243.719C668.294 242.975 668.774 242.39 669.392 241.964C670.016 241.538 670.748 241.325 671.588 241.325C672.782 241.325 673.721 241.739 674.405 242.567C675.095 243.395 675.44 244.529 675.44 245.969C675.44 246.131 675.434 246.284 675.422 246.428C675.416 246.572 675.41 246.695 675.404 246.797H669.032ZM671.606 242.567C670.904 242.567 670.316 242.816 669.842 243.314C669.368 243.812 669.101 244.583 669.041 245.627H673.982C673.964 244.613 673.742 243.851 673.316 243.341C672.89 242.825 672.32 242.567 671.606 242.567Z" fill="black"/>
<path d="M696.567 238.607V239.858H693.813V249.749H696.567V251H689.475V249.749H692.229V239.858H689.475V238.607H696.567Z" fill="black"/>
<path d="M704.507 249.902C704.981 249.902 705.422 249.827 705.83 249.677C706.244 249.521 706.625 249.32 706.973 249.074L707.711 250.064C707.297 250.418 706.799 250.697 706.217 250.901C705.635 251.105 705.065 251.207 704.507 251.207C703.565 251.207 702.761 251.006 702.095 250.604C701.435 250.196 700.931 249.626 700.583 248.894C700.235 248.156 700.061 247.292 700.061 246.302C700.061 245.354 700.235 244.505 700.583 243.755C700.931 243.005 701.438 242.414 702.104 241.982C702.77 241.544 703.577 241.325 704.525 241.325C705.731 241.325 706.787 241.691 707.693 242.423L706.955 243.431C706.133 242.867 705.317 242.585 704.507 242.585C703.691 242.585 703.019 242.894 702.491 243.512C701.963 244.124 701.699 245.054 701.699 246.302C701.699 247.568 701.963 248.486 702.491 249.056C703.019 249.62 703.691 249.902 704.507 249.902Z" fill="black"/>
<path d="M714.625 241.325C715.963 241.325 716.974 241.772 717.658 242.666C718.342 243.56 718.684 244.757 718.684 246.257C718.684 247.223 718.528 248.078 718.216 248.822C717.904 249.566 717.445 250.151 716.839 250.577C716.233 250.997 715.489 251.207 714.607 251.207C713.269 251.207 712.255 250.757 711.565 249.857C710.875 248.957 710.53 247.763 710.53 246.275C710.53 245.303 710.686 244.445 710.998 243.701C711.31 242.951 711.769 242.369 712.375 241.955C712.987 241.535 713.737 241.325 714.625 241.325ZM714.625 242.558C713.809 242.558 713.191 242.861 712.771 243.467C712.357 244.073 712.15 245.009 712.15 246.275C712.15 247.529 712.354 248.459 712.762 249.065C713.176 249.665 713.791 249.965 714.607 249.965C715.423 249.965 716.035 249.662 716.443 249.056C716.857 248.45 717.064 247.517 717.064 246.257C717.064 244.997 716.86 244.067 716.452 243.467C716.044 242.861 715.435 242.558 714.625 242.558Z" fill="black"/>
<path d="M721.809 251V241.523H723.096L723.213 242.837C723.597 242.351 724.077 241.979 724.653 241.721C725.229 241.457 725.793 241.325 726.345 241.325C727.275 241.325 727.95 241.571 728.37 242.063C728.796 242.555 729.009 243.239 729.009 244.115V251H727.497V245.231C727.497 244.583 727.461 244.061 727.389 243.665C727.317 243.269 727.164 242.978 726.93 242.792C726.702 242.606 726.351 242.513 725.877 242.513C725.505 242.513 725.154 242.594 724.824 242.756C724.5 242.918 724.209 243.122 723.951 243.368C723.699 243.608 723.489 243.851 723.321 244.097V251H721.809Z" fill="black"/>
<path d="M735.824 249.956C736.556 249.956 737.132 249.821 737.552 249.551C737.972 249.281 738.182 248.915 738.182 248.453C738.182 248.171 738.128 247.925 738.02 247.715C737.918 247.505 737.705 247.316 737.381 247.148C737.057 246.974 736.559 246.803 735.887 246.635C735.233 246.473 734.663 246.287 734.177 246.077C733.697 245.861 733.322 245.582 733.052 245.24C732.788 244.898 732.656 244.454 732.656 243.908C732.656 243.11 732.989 242.48 733.655 242.018C734.321 241.556 735.188 241.325 736.256 241.325C737.018 241.325 737.681 241.427 738.245 241.631C738.815 241.835 739.298 242.081 739.694 242.369L739.028 243.395C738.674 243.149 738.278 242.948 737.84 242.792C737.408 242.63 736.886 242.549 736.274 242.549C735.53 242.549 735.002 242.666 734.69 242.9C734.378 243.128 734.222 243.425 734.222 243.791C734.222 244.073 734.297 244.307 734.447 244.493C734.603 244.673 734.864 244.835 735.23 244.979C735.596 245.123 736.1 245.282 736.742 245.456C737.36 245.624 737.9 245.822 738.362 246.05C738.824 246.278 739.181 246.578 739.433 246.95C739.691 247.316 739.82 247.793 739.82 248.381C739.82 249.053 739.628 249.599 739.244 250.019C738.86 250.433 738.362 250.736 737.75 250.928C737.144 251.114 736.502 251.207 735.824 251.207C734.966 251.207 734.234 251.084 733.628 250.838C733.028 250.586 732.524 250.283 732.116 249.929L732.98 248.93C733.352 249.236 733.778 249.485 734.258 249.677C734.744 249.863 735.266 249.956 735.824 249.956Z" fill="black"/>
<path d="M759.786 237.518C760.296 237.518 760.758 237.563 761.172 237.653C761.586 237.743 761.979 237.869 762.351 238.031L761.865 239.156C761.559 239.024 761.232 238.925 760.884 238.859C760.542 238.793 760.191 238.76 759.831 238.76C758.505 238.76 757.842 239.285 757.842 240.335V242.261H761.055L760.893 243.449H757.842V251H756.33V243.449H754.071V242.261H756.33V240.371C756.33 239.783 756.48 239.276 756.78 238.85C757.086 238.424 757.5 238.097 758.022 237.869C758.544 237.635 759.132 237.518 759.786 237.518Z" fill="black"/>
<path d="M768.59 241.325C769.928 241.325 770.939 241.772 771.623 242.666C772.307 243.56 772.649 244.757 772.649 246.257C772.649 247.223 772.493 248.078 772.181 248.822C771.869 249.566 771.41 250.151 770.804 250.577C770.198 250.997 769.454 251.207 768.572 251.207C767.234 251.207 766.22 250.757 765.53 249.857C764.84 248.957 764.495 247.763 764.495 246.275C764.495 245.303 764.651 244.445 764.963 243.701C765.275 242.951 765.734 242.369 766.34 241.955C766.952 241.535 767.702 241.325 768.59 241.325ZM768.59 242.558C767.774 242.558 767.156 242.861 766.736 243.467C766.322 244.073 766.115 245.009 766.115 246.275C766.115 247.529 766.319 248.459 766.727 249.065C767.141 249.665 767.756 249.965 768.572 249.965C769.388 249.965 770 249.662 770.408 249.056C770.822 248.45 771.029 247.517 771.029 246.257C771.029 244.997 770.825 244.067 770.417 243.467C770.009 242.861 769.4 242.558 768.59 242.558Z" fill="black"/>
<path d="M775.864 251V249.839H777.34V242.684H775.864V241.523H778.492L778.771 243.764C779.137 242.984 779.581 242.381 780.103 241.955C780.625 241.529 781.315 241.316 782.173 241.316C782.437 241.316 782.671 241.337 782.875 241.379C783.085 241.415 783.298 241.463 783.514 241.523L783.298 244.727H782.056V242.711C782.032 242.711 782.005 242.711 781.975 242.711C780.523 242.711 779.482 243.749 778.852 245.825V249.839H780.778V251H775.864Z" fill="black"/>
<path d="M805.496 244.745C805.496 246.041 805.328 247.1 804.992 247.922C804.656 248.738 804.212 249.371 803.66 249.821C803.108 250.265 802.502 250.574 801.842 250.748C801.188 250.916 800.54 251 799.898 251H797.054V238.607H799.7C800.426 238.607 801.131 238.688 801.815 238.85C802.505 239.012 803.126 239.312 803.678 239.75C804.236 240.182 804.677 240.8 805.001 241.604C805.331 242.408 805.496 243.455 805.496 244.745ZM803.831 244.745C803.831 243.665 803.717 242.801 803.489 242.153C803.261 241.505 802.961 241.019 802.589 240.695C802.217 240.371 801.809 240.155 801.365 240.047C800.927 239.939 800.495 239.885 800.069 239.885H798.611V249.749H800.087C800.531 249.749 800.975 249.68 801.419 249.542C801.863 249.398 802.265 249.146 802.625 248.786C802.991 248.426 803.282 247.919 803.498 247.265C803.72 246.611 803.831 245.771 803.831 244.745Z" fill="black"/>
<path d="M809.341 246.797C809.383 247.895 809.671 248.696 810.205 249.2C810.745 249.698 811.381 249.947 812.113 249.947C812.599 249.947 813.037 249.875 813.427 249.731C813.817 249.587 814.222 249.374 814.642 249.092L815.353 250.091C814.915 250.439 814.411 250.712 813.841 250.91C813.271 251.108 812.689 251.207 812.095 251.207C811.171 251.207 810.385 251 809.737 250.586C809.095 250.172 808.603 249.596 808.261 248.858C807.925 248.114 807.757 247.253 807.757 246.275C807.757 245.315 807.925 244.463 808.261 243.719C808.603 242.975 809.083 242.39 809.701 241.964C810.325 241.538 811.057 241.325 811.897 241.325C813.091 241.325 814.03 241.739 814.714 242.567C815.404 243.395 815.749 244.529 815.749 245.969C815.749 246.131 815.743 246.284 815.731 246.428C815.725 246.572 815.719 246.695 815.713 246.797H809.341ZM811.915 242.567C811.213 242.567 810.625 242.816 810.151 243.314C809.677 243.812 809.41 244.583 809.35 245.627H814.291C814.273 244.613 814.051 243.851 813.625 243.341C813.199 242.825 812.629 242.567 811.915 242.567Z" fill="black"/>
<path d="M822.168 249.956C822.9 249.956 823.476 249.821 823.896 249.551C824.316 249.281 824.526 248.915 824.526 248.453C824.526 248.171 824.472 247.925 824.364 247.715C824.262 247.505 824.049 247.316 823.725 247.148C823.401 246.974 822.903 246.803 822.231 246.635C821.577 246.473 821.007 246.287 820.521 246.077C820.041 245.861 819.666 245.582 819.396 245.24C819.132 244.898 819 244.454 819 243.908C819 243.11 819.333 242.48 819.999 242.018C820.665 241.556 821.532 241.325 822.6 241.325C823.362 241.325 824.025 241.427 824.589 241.631C825.159 241.835 825.642 242.081 826.038 242.369L825.372 243.395C825.018 243.149 824.622 242.948 824.184 242.792C823.752 242.63 823.23 242.549 822.618 242.549C821.874 242.549 821.346 242.666 821.034 242.9C820.722 243.128 820.566 243.425 820.566 243.791C820.566 244.073 820.641 244.307 820.791 244.493C820.947 244.673 821.208 244.835 821.574 244.979C821.94 245.123 822.444 245.282 823.086 245.456C823.704 245.624 824.244 245.822 824.706 246.05C825.168 246.278 825.525 246.578 825.777 246.95C826.035 247.316 826.164 247.793 826.164 248.381C826.164 249.053 825.972 249.599 825.588 250.019C825.204 250.433 824.706 250.736 824.094 250.928C823.488 251.114 822.846 251.207 822.168 251.207C821.31 251.207 820.578 251.084 819.972 250.838C819.372 250.586 818.868 250.283 818.46 249.929L819.324 248.93C819.696 249.236 820.122 249.485 820.602 249.677C821.088 249.863 821.61 249.956 822.168 249.956Z" fill="black"/>
<path d="M833.33 237.086C833.666 237.086 833.933 237.188 834.131 237.392C834.335 237.596 834.437 237.845 834.437 238.139C834.437 238.445 834.335 238.703 834.131 238.913C833.933 239.117 833.666 239.219 833.33 239.219C833.012 239.219 832.751 239.117 832.547 238.913C832.343 238.703 832.241 238.445 832.241 238.139C832.241 237.845 832.343 237.596 832.547 237.392C832.751 237.188 833.012 237.086 833.33 237.086ZM834.536 241.523V249.803H837.209V251H830.099V249.803H833.024V242.72H830.189V241.523H834.536Z" fill="black"/>
<path d="M848.236 240.515L848.704 241.937C848.296 242.063 847.864 242.141 847.408 242.171C846.958 242.201 846.466 242.216 845.932 242.216C847.03 242.72 847.579 243.515 847.579 244.601C847.579 245.537 847.264 246.308 846.634 246.914C846.01 247.52 845.137 247.823 844.015 247.823C843.697 247.823 843.43 247.808 843.214 247.778C843.004 247.748 842.8 247.703 842.602 247.643C842.458 247.745 842.338 247.88 842.242 248.048C842.152 248.21 842.107 248.381 842.107 248.561C842.107 248.789 842.197 248.978 842.377 249.128C842.557 249.278 842.89 249.353 843.376 249.353H845.086C845.722 249.353 846.292 249.467 846.796 249.695C847.3 249.923 847.699 250.232 847.993 250.622C848.287 251.006 848.434 251.441 848.434 251.927C848.434 252.857 848.038 253.571 847.246 254.069C846.46 254.567 845.347 254.816 843.907 254.816C842.899 254.816 842.104 254.711 841.522 254.501C840.94 254.297 840.523 253.982 840.271 253.556C840.025 253.136 839.902 252.605 839.902 251.963H841.27C841.27 252.329 841.342 252.632 841.486 252.872C841.63 253.112 841.891 253.289 842.269 253.403C842.647 253.523 843.19 253.583 843.898 253.583C844.942 253.583 845.704 253.451 846.184 253.187C846.664 252.929 846.904 252.542 846.904 252.026C846.904 251.576 846.7 251.237 846.292 251.009C845.884 250.781 845.374 250.667 844.762 250.667H843.07C842.248 250.667 841.645 250.487 841.261 250.127C840.877 249.767 840.685 249.353 840.685 248.885C840.685 248.237 841.033 247.685 841.729 247.229C840.667 246.665 840.136 245.792 840.136 244.61C840.136 243.968 840.295 243.401 840.613 242.909C840.931 242.411 841.375 242.021 841.945 241.739C842.515 241.457 843.172 241.316 843.916 241.316C844.714 241.316 845.362 241.283 845.86 241.217C846.358 241.151 846.784 241.058 847.138 240.938C847.498 240.818 847.864 240.677 848.236 240.515ZM843.916 242.423C843.154 242.423 842.59 242.63 842.224 243.044C841.864 243.458 841.684 243.98 841.684 244.61C841.684 245.252 841.867 245.78 842.233 246.194C842.605 246.608 843.178 246.815 843.952 246.815C844.618 246.815 845.128 246.62 845.482 246.23C845.836 245.84 846.013 245.297 846.013 244.601C846.013 243.149 845.314 242.423 843.916 242.423Z" fill="black"/>
<path d="M851.325 251V241.523H852.612L852.729 242.837C853.113 242.351 853.593 241.979 854.169 241.721C854.745 241.457 855.309 241.325 855.861 241.325C856.791 241.325 857.466 241.571 857.886 242.063C858.312 242.555 858.525 243.239 858.525 244.115V251H857.013V245.231C857.013 244.583 856.977 244.061 856.905 243.665C856.833 243.269 856.68 242.978 856.446 242.792C856.218 242.606 855.867 242.513 855.393 242.513C855.021 242.513 854.67 242.594 854.34 242.756C854.016 242.918 853.725 243.122 853.467 243.368C853.215 243.608 853.005 243.851 852.837 244.097V251H851.325Z" fill="black"/>
<path d="M863.306 246.797C863.348 247.895 863.636 248.696 864.17 249.2C864.71 249.698 865.346 249.947 866.078 249.947C866.564 249.947 867.002 249.875 867.392 249.731C867.782 249.587 868.187 249.374 868.607 249.092L869.318 250.091C868.88 250.439 868.376 250.712 867.806 250.91C867.236 251.108 866.654 251.207 866.06 251.207C865.136 251.207 864.35 251 863.702 250.586C863.06 250.172 862.568 249.596 862.226 248.858C861.89 248.114 861.722 247.253 861.722 246.275C861.722 245.315 861.89 244.463 862.226 243.719C862.568 242.975 863.048 242.39 863.666 241.964C864.29 241.538 865.022 241.325 865.862 241.325C867.056 241.325 867.995 241.739 868.679 242.567C869.369 243.395 869.714 244.529 869.714 245.969C869.714 246.131 869.708 246.284 869.696 246.428C869.69 246.572 869.684 246.695 869.678 246.797H863.306ZM865.88 242.567C865.178 242.567 864.59 242.816 864.116 243.314C863.642 243.812 863.375 244.583 863.315 245.627H868.256C868.238 244.613 868.016 243.851 867.59 243.341C867.164 242.825 866.594 242.567 865.88 242.567Z" fill="black"/>
<path d="M873 251V249.839H874.477V242.684H873V241.523H875.628L875.908 243.764C876.274 242.984 876.718 242.381 877.24 241.955C877.762 241.529 878.452 241.316 879.31 241.316C879.574 241.316 879.807 241.337 880.011 241.379C880.221 241.415 880.435 241.463 880.651 241.523L880.435 244.727H879.193V242.711C879.169 242.711 879.142 242.711 879.112 242.711C877.66 242.711 876.619 243.749 875.989 245.825V249.839H877.914V251H873Z" fill="black"/>
<path d="M886.925 249.956C887.657 249.956 888.233 249.821 888.653 249.551C889.073 249.281 889.283 248.915 889.283 248.453C889.283 248.171 889.229 247.925 889.121 247.715C889.019 247.505 888.806 247.316 888.482 247.148C888.158 246.974 887.66 246.803 886.988 246.635C886.334 246.473 885.764 246.287 885.278 246.077C884.798 245.861 884.423 245.582 884.153 245.24C883.889 244.898 883.757 244.454 883.757 243.908C883.757 243.11 884.09 242.48 884.756 242.018C885.422 241.556 886.289 241.325 887.357 241.325C888.119 241.325 888.782 241.427 889.346 241.631C889.916 241.835 890.399 242.081 890.795 242.369L890.129 243.395C889.775 243.149 889.379 242.948 888.941 242.792C888.509 242.63 887.987 242.549 887.375 242.549C886.631 242.549 886.103 242.666 885.791 242.9C885.479 243.128 885.323 243.425 885.323 243.791C885.323 244.073 885.398 244.307 885.548 244.493C885.704 244.673 885.965 244.835 886.331 244.979C886.697 245.123 887.201 245.282 887.843 245.456C888.461 245.624 889.001 245.822 889.463 246.05C889.925 246.278 890.282 246.578 890.534 246.95C890.792 247.316 890.921 247.793 890.921 248.381C890.921 249.053 890.729 249.599 890.345 250.019C889.961 250.433 889.463 250.736 888.851 250.928C888.245 251.114 887.603 251.207 886.925 251.207C886.067 251.207 885.335 251.084 884.729 250.838C884.129 250.586 883.625 250.283 883.217 249.929L884.081 248.93C884.453 249.236 884.879 249.485 885.359 249.677C885.845 249.863 886.367 249.956 886.925 249.956Z" fill="black"/>
<path d="M912.075 248.93C912.075 249.314 912.138 249.593 912.264 249.767C912.39 249.941 912.585 250.067 912.849 250.145L912.48 251.207C912.072 251.153 911.715 251.024 911.409 250.82C911.103 250.61 910.881 250.295 910.743 249.875C910.401 250.313 909.972 250.646 909.456 250.874C908.946 251.096 908.385 251.207 907.773 251.207C906.825 251.207 906.078 250.94 905.532 250.406C904.986 249.872 904.713 249.164 904.713 248.282C904.713 247.304 905.094 246.554 905.856 246.032C906.618 245.51 907.719 245.249 909.159 245.249H910.554V244.457C910.554 243.773 910.353 243.29 909.951 243.008C909.555 242.72 909.003 242.576 908.295 242.576C907.983 242.576 907.617 242.615 907.197 242.693C906.777 242.765 906.321 242.888 905.829 243.062L905.433 241.919C906.009 241.703 906.552 241.55 907.062 241.46C907.578 241.37 908.067 241.325 908.529 241.325C909.705 241.325 910.59 241.601 911.184 242.153C911.778 242.705 912.075 243.449 912.075 244.385V248.93ZM908.16 250.055C908.628 250.055 909.072 249.938 909.492 249.704C909.918 249.464 910.272 249.134 910.554 248.714V246.275H909.186C908.142 246.275 907.404 246.455 906.972 246.815C906.546 247.175 906.333 247.658 906.333 248.264C906.333 249.458 906.942 250.055 908.16 250.055Z" fill="black"/>
<path d="M916.082 251V241.523H917.369L917.486 242.837C917.87 242.351 918.35 241.979 918.926 241.721C919.502 241.457 920.066 241.325 920.618 241.325C921.548 241.325 922.223 241.571 922.643 242.063C923.069 242.555 923.282 243.239 923.282 244.115V251H921.77V245.231C921.77 244.583 921.734 244.061 921.662 243.665C921.59 243.269 921.437 242.978 921.203 242.792C920.975 242.606 920.624 242.513 920.15 242.513C919.778 242.513 919.427 242.594 919.097 242.756C918.773 242.918 918.482 243.122 918.224 243.368C917.972 243.608 917.762 243.851 917.594 244.097V251H916.082Z" fill="black"/>
<path d="M932.545 237.518L934.057 237.707V251H932.734L932.59 249.749C932.236 250.253 931.828 250.622 931.366 250.856C930.91 251.09 930.421 251.207 929.899 251.207C929.077 251.207 928.399 251 927.865 250.586C927.331 250.172 926.935 249.596 926.677 248.858C926.419 248.114 926.29 247.253 926.29 246.275C926.29 245.327 926.437 244.481 926.731 243.737C927.025 242.987 927.448 242.399 928 241.973C928.558 241.541 929.227 241.325 930.007 241.325C931.057 241.325 931.903 241.697 932.545 242.441V237.518ZM930.403 242.54C929.611 242.54 929.002 242.849 928.576 243.467C928.15 244.085 927.937 245.021 927.937 246.275C927.937 248.747 928.696 249.983 930.214 249.983C930.748 249.983 931.207 249.833 931.591 249.533C931.975 249.227 932.293 248.879 932.545 248.489V243.755C932.287 243.371 931.975 243.074 931.609 242.864C931.243 242.648 930.841 242.54 930.403 242.54Z" fill="black"/>
<path d="M956.597 244.745C956.597 246.041 956.429 247.1 956.093 247.922C955.757 248.738 955.313 249.371 954.761 249.821C954.209 250.265 953.603 250.574 952.943 250.748C952.289 250.916 951.641 251 950.999 251H948.155V238.607H950.801C951.527 238.607 952.232 238.688 952.916 238.85C953.606 239.012 954.227 239.312 954.779 239.75C955.337 240.182 955.778 240.8 956.102 241.604C956.432 242.408 956.597 243.455 956.597 244.745ZM954.932 244.745C954.932 243.665 954.818 242.801 954.59 242.153C954.362 241.505 954.062 241.019 953.69 240.695C953.318 240.371 952.91 240.155 952.466 240.047C952.028 239.939 951.596 239.885 951.17 239.885H949.712V249.749H951.188C951.632 249.749 952.076 249.68 952.52 249.542C952.964 249.398 953.366 249.146 953.726 248.786C954.092 248.426 954.383 247.919 954.599 247.265C954.821 246.611 954.932 245.771 954.932 244.745Z" fill="black"/>
<path d="M960.442 246.797C960.484 247.895 960.772 248.696 961.306 249.2C961.846 249.698 962.482 249.947 963.214 249.947C963.7 249.947 964.138 249.875 964.528 249.731C964.918 249.587 965.323 249.374 965.743 249.092L966.454 250.091C966.016 250.439 965.512 250.712 964.942 250.91C964.372 251.108 963.79 251.207 963.196 251.207C962.272 251.207 961.486 251 960.838 250.586C960.196 250.172 959.704 249.596 959.362 248.858C959.026 248.114 958.858 247.253 958.858 246.275C958.858 245.315 959.026 244.463 959.362 243.719C959.704 242.975 960.184 242.39 960.802 241.964C961.426 241.538 962.158 241.325 962.998 241.325C964.192 241.325 965.131 241.739 965.815 242.567C966.505 243.395 966.85 244.529 966.85 245.969C966.85 246.131 966.844 246.284 966.832 246.428C966.826 246.572 966.82 246.695 966.814 246.797H960.442ZM963.016 242.567C962.314 242.567 961.726 242.816 961.252 243.314C960.778 243.812 960.511 244.583 960.451 245.627H965.392C965.374 244.613 965.152 243.851 964.726 243.341C964.3 242.825 963.73 242.567 963.016 242.567Z" fill="black"/>
<path d="M977.949 241.523L974.502 251H972.747L969.327 241.523H970.929L973.674 249.623L976.383 241.523H977.949Z" fill="black"/>
<path d="M982.028 246.797C982.07 247.895 982.358 248.696 982.892 249.2C983.432 249.698 984.068 249.947 984.8 249.947C985.286 249.947 985.724 249.875 986.114 249.731C986.504 249.587 986.909 249.374 987.329 249.092L988.04 250.091C987.602 250.439 987.098 250.712 986.528 250.91C985.958 251.108 985.376 251.207 984.782 251.207C983.858 251.207 983.072 251 982.424 250.586C981.782 250.172 981.29 249.596 980.948 248.858C980.612 248.114 980.444 247.253 980.444 246.275C980.444 245.315 980.612 244.463 980.948 243.719C981.29 242.975 981.77 242.39 982.388 241.964C983.012 241.538 983.744 241.325 984.584 241.325C985.778 241.325 986.717 241.739 987.401 242.567C988.091 243.395 988.436 244.529 988.436 245.969C988.436 246.131 988.43 246.284 988.418 246.428C988.412 246.572 988.406 246.695 988.4 246.797H982.028ZM984.602 242.567C983.9 242.567 983.312 242.816 982.838 243.314C982.364 243.812 982.097 244.583 982.037 245.627H986.978C986.96 244.613 986.738 243.851 986.312 243.341C985.886 242.825 985.316 242.567 984.602 242.567Z" fill="black"/>
<path d="M995.323 237.707V248.66C995.323 249.128 995.467 249.461 995.755 249.659C996.049 249.851 996.427 249.947 996.889 249.947C997.171 249.947 997.441 249.917 997.699 249.857C997.963 249.797 998.224 249.716 998.482 249.614L998.887 250.721C998.629 250.847 998.308 250.958 997.924 251.054C997.546 251.156 997.117 251.207 996.637 251.207C995.797 251.207 995.116 250.976 994.594 250.514C994.072 250.046 993.811 249.401 993.811 248.579V238.904H990.904V237.707H995.323Z" fill="black"/>
<path d="M1006.04 241.325C1007.37 241.325 1008.38 241.772 1009.07 242.666C1009.75 243.56 1010.09 244.757 1010.09 246.257C1010.09 247.223 1009.94 248.078 1009.63 248.822C1009.31 249.566 1008.86 250.151 1008.25 250.577C1007.64 250.997 1006.9 251.207 1006.02 251.207C1004.68 251.207 1003.67 250.757 1002.98 249.857C1002.29 248.957 1001.94 247.763 1001.94 246.275C1001.94 245.303 1002.1 244.445 1002.41 243.701C1002.72 242.951 1003.18 242.369 1003.79 241.955C1004.4 241.535 1005.15 241.325 1006.04 241.325ZM1006.04 242.558C1005.22 242.558 1004.6 242.861 1004.18 243.467C1003.77 244.073 1003.56 245.009 1003.56 246.275C1003.56 247.529 1003.76 248.459 1004.17 249.065C1004.59 249.665 1005.2 249.965 1006.02 249.965C1006.83 249.965 1007.45 249.662 1007.85 249.056C1008.27 248.45 1008.47 247.517 1008.47 246.257C1008.47 244.997 1008.27 244.067 1007.86 243.467C1007.45 242.861 1006.85 242.558 1006.04 242.558Z" fill="black"/>
<path d="M1017.46 241.325C1018.3 241.325 1018.97 241.529 1019.47 241.937C1019.97 242.345 1020.33 242.921 1020.55 243.665C1020.78 244.403 1020.89 245.267 1020.89 246.257C1020.89 247.211 1020.75 248.063 1020.48 248.813C1020.22 249.557 1019.82 250.142 1019.28 250.568C1018.74 250.994 1018.06 251.207 1017.23 251.207C1016.2 251.207 1015.36 250.841 1014.73 250.109V254.627L1013.22 254.816V241.523H1014.51L1014.63 242.846C1014.98 242.36 1015.39 241.985 1015.87 241.721C1016.35 241.457 1016.88 241.325 1017.46 241.325ZM1017.1 242.54C1016.58 242.54 1016.11 242.699 1015.71 243.017C1015.31 243.329 1014.98 243.677 1014.73 244.061V248.759C1014.98 249.125 1015.29 249.416 1015.66 249.632C1016.04 249.842 1016.45 249.947 1016.9 249.947C1017.69 249.947 1018.28 249.647 1018.67 249.047C1019.07 248.447 1019.27 247.514 1019.27 246.248C1019.27 243.776 1018.54 242.54 1017.1 242.54Z" fill="black"/>
<path d="M1025.2 246.797C1025.24 247.895 1025.53 248.696 1026.06 249.2C1026.6 249.698 1027.24 249.947 1027.97 249.947C1028.46 249.947 1028.9 249.875 1029.29 249.731C1029.68 249.587 1030.08 249.374 1030.5 249.092L1031.21 250.091C1030.77 250.439 1030.27 250.712 1029.7 250.91C1029.13 251.108 1028.55 251.207 1027.95 251.207C1027.03 251.207 1026.24 251 1025.6 250.586C1024.95 250.172 1024.46 249.596 1024.12 248.858C1023.78 248.114 1023.62 247.253 1023.62 246.275C1023.62 245.315 1023.78 244.463 1024.12 243.719C1024.46 242.975 1024.94 242.39 1025.56 241.964C1026.18 241.538 1026.92 241.325 1027.76 241.325C1028.95 241.325 1029.89 241.739 1030.57 242.567C1031.26 243.395 1031.61 244.529 1031.61 245.969C1031.61 246.131 1031.6 246.284 1031.59 246.428C1031.58 246.572 1031.58 246.695 1031.57 246.797H1025.2ZM1027.77 242.567C1027.07 242.567 1026.48 242.816 1026.01 243.314C1025.54 243.812 1025.27 244.583 1025.21 245.627H1030.15C1030.13 244.613 1029.91 243.851 1029.48 243.341C1029.06 242.825 1028.49 242.567 1027.77 242.567Z" fill="black"/>
<path d="M1034.9 251V249.839H1036.37V242.684H1034.9V241.523H1037.52L1037.8 243.764C1038.17 242.984 1038.61 242.381 1039.13 241.955C1039.66 241.529 1040.35 241.316 1041.2 241.316C1041.47 241.316 1041.7 241.337 1041.91 241.379C1042.12 241.415 1042.33 241.463 1042.55 241.523L1042.33 244.727H1041.09V242.711C1041.06 242.711 1041.04 242.711 1041.01 242.711C1039.55 242.711 1038.51 243.749 1037.88 245.825V249.839H1039.81V251H1034.9Z" fill="black"/>
<path d="M1048.82 249.956C1049.55 249.956 1050.13 249.821 1050.55 249.551C1050.97 249.281 1051.18 248.915 1051.18 248.453C1051.18 248.171 1051.12 247.925 1051.02 247.715C1050.91 247.505 1050.7 247.316 1050.38 247.148C1050.05 246.974 1049.55 246.803 1048.88 246.635C1048.23 246.473 1047.66 246.287 1047.17 246.077C1046.69 245.861 1046.32 245.582 1046.05 245.24C1045.78 244.898 1045.65 244.454 1045.65 243.908C1045.65 243.11 1045.99 242.48 1046.65 242.018C1047.32 241.556 1048.18 241.325 1049.25 241.325C1050.01 241.325 1050.68 241.427 1051.24 241.631C1051.81 241.835 1052.29 242.081 1052.69 242.369L1052.02 243.395C1051.67 243.149 1051.27 242.948 1050.84 242.792C1050.4 242.63 1049.88 242.549 1049.27 242.549C1048.53 242.549 1048 242.666 1047.69 242.9C1047.37 243.128 1047.22 243.425 1047.22 243.791C1047.22 244.073 1047.29 244.307 1047.44 244.493C1047.6 244.673 1047.86 244.835 1048.23 244.979C1048.59 245.123 1049.1 245.282 1049.74 245.456C1050.36 245.624 1050.9 245.822 1051.36 246.05C1051.82 246.278 1052.18 246.578 1052.43 246.95C1052.69 247.316 1052.82 247.793 1052.82 248.381C1052.82 249.053 1052.62 249.599 1052.24 250.019C1051.86 250.433 1051.36 250.736 1050.75 250.928C1050.14 251.114 1049.5 251.207 1048.82 251.207C1047.96 251.207 1047.23 251.084 1046.62 250.838C1046.02 250.586 1045.52 250.283 1045.11 249.929L1045.98 248.93C1046.35 249.236 1046.77 249.485 1047.25 249.677C1047.74 249.863 1048.26 249.956 1048.82 249.956Z" fill="black"/>
<path d="M1058.39 249.614C1058.39 249.176 1058.54 248.804 1058.84 248.498C1059.14 248.192 1059.51 248.039 1059.96 248.039C1060.42 248.039 1060.8 248.192 1061.1 248.498C1061.4 248.804 1061.56 249.176 1061.56 249.614C1061.56 250.058 1061.4 250.436 1061.1 250.748C1060.8 251.054 1060.42 251.207 1059.96 251.207C1059.51 251.207 1059.14 251.054 1058.84 250.748C1058.54 250.436 1058.39 250.058 1058.39 249.614Z" fill="black"/>
<rect opacity="0.3" x="284" width="15" height="204" fill="#5C10FF"/>
<g opacity="0.3">
<circle cx="152" cy="231.485" r="6" transform="rotate(45 152 231.485)" fill="#6AD7FA"/>
<circle cx="171.092" cy="250.577" r="6" transform="rotate(45 171.092 250.577)" fill="#6AD7FA"/>
<circle cx="190.184" cy="269.669" r="6" transform="rotate(45 190.184 269.669)" fill="#6AD7FA"/>
<circle cx="209.276" cy="288.761" r="6" transform="rotate(45 209.276 288.761)" fill="#6AD7FA"/>
<circle cx="228.368" cy="307.853" r="6" transform="rotate(45 228.368 307.853)" fill="#6AD7FA"/>
<circle cx="132.908" cy="250.577" r="6" transform="rotate(45 132.908 250.577)" fill="#6AD7FA"/>
<circle cx="152" cy="269.669" r="6" transform="rotate(45 152 269.669)" fill="#6AD7FA"/>
<circle cx="171.092" cy="288.761" r="6" transform="rotate(45 171.092 288.761)" fill="#6AD7FA"/>
<circle cx="190.184" cy="307.853" r="6" transform="rotate(45 190.184 307.853)" fill="#6AD7FA"/>
<circle cx="209.276" cy="326.945" r="6" transform="rotate(45 209.276 326.945)" fill="#6AD7FA"/>
<circle cx="113.816" cy="269.669" r="6" transform="rotate(45 113.816 269.669)" fill="#6AD7FA"/>
<circle cx="132.908" cy="288.761" r="6" transform="rotate(45 132.908 288.761)" fill="#6AD7FA"/>
<circle cx="152" cy="307.853" r="6" transform="rotate(45 152 307.853)" fill="#6AD7FA"/>
<circle cx="171.092" cy="326.945" r="6" transform="rotate(45 171.092 326.945)" fill="#6AD7FA"/>
<circle cx="190.184" cy="346.037" r="6" transform="rotate(45 190.184 346.037)" fill="#6AD7FA"/>
<circle cx="94.7244" cy="288.761" r="6" transform="rotate(45 94.7244 288.761)" fill="#6AD7FA"/>
<circle cx="113.816" cy="307.853" r="6" transform="rotate(45 113.816 307.853)" fill="#6AD7FA"/>
<circle cx="132.908" cy="326.945" r="6" transform="rotate(45 132.908 326.945)" fill="#6AD7FA"/>
<circle cx="152" cy="346.037" r="6" transform="rotate(45 152 346.037)" fill="#6AD7FA"/>
<circle cx="171.092" cy="365.128" r="6" transform="rotate(45 171.092 365.128)" fill="#6AD7FA"/>
<circle cx="75.6324" cy="307.853" r="6" transform="rotate(45 75.6324 307.853)" fill="#6AD7FA"/>
<circle cx="94.7244" cy="326.945" r="6" transform="rotate(45 94.7244 326.945)" fill="#6AD7FA"/>
<circle cx="113.816" cy="346.037" r="6" transform="rotate(45 113.816 346.037)" fill="#6AD7FA"/>
<circle cx="132.908" cy="365.128" r="6" transform="rotate(45 132.908 365.128)" fill="#6AD7FA"/>
<circle cx="152" cy="384.22" r="6" transform="rotate(45 152 384.22)" fill="#6AD7FA"/>
</g>
<g opacity="0.5">
<circle cx="1184" cy="398.853" r="6" transform="rotate(-90 1184 398.853)" fill="#A4E911"/>
<circle cx="1211" cy="398.853" r="6" transform="rotate(-90 1211 398.853)" fill="#A4E911"/>
<circle cx="1211" cy="371.853" r="6" transform="rotate(-90 1211 371.853)" fill="#A4E911"/>
<circle cx="1238" cy="398.853" r="6" transform="rotate(-90 1238 398.853)" fill="#A4E911"/>
<circle cx="1238" cy="371.853" r="6" transform="rotate(-90 1238 371.853)" fill="#A4E911"/>
<circle cx="1238" cy="344.853" r="6" transform="rotate(-90 1238 344.853)" fill="#A4E911"/>
<circle cx="1265" cy="398.853" r="6" transform="rotate(-90 1265 398.853)" fill="#A4E911"/>
<circle cx="1265" cy="371.853" r="6" transform="rotate(-90 1265 371.853)" fill="#A4E911"/>
<circle cx="1265" cy="344.853" r="6" transform="rotate(-90 1265 344.853)" fill="#A4E911"/>
<circle cx="1265" cy="317.853" r="6" transform="rotate(-90 1265 317.853)" fill="#A4E911"/>
<circle cx="1292" cy="398.853" r="6" transform="rotate(-90 1292 398.853)" fill="#A4E911"/>
<circle cx="1292" cy="371.853" r="6" transform="rotate(-90 1292 371.853)" fill="#A4E911"/>
<circle cx="1292" cy="344.853" r="6" transform="rotate(-90 1292 344.853)" fill="#A4E911"/>
<circle cx="1292" cy="317.853" r="6" transform="rotate(-90 1292 317.853)" fill="#A4E911"/>
<circle cx="1292" cy="290.853" r="6" transform="rotate(-90 1292 290.853)" fill="#A4E911"/>
</g>
<path fill-rule="evenodd" clip-rule="evenodd" d="M636 306H522V360H636V306ZM521 305V361H637V305H521Z" fill="#EA760C"/>
<path d="M577.221 337.614C577.221 337.176 577.371 336.804 577.671 336.498C577.971 336.192 578.346 336.039 578.796 336.039C579.252 336.039 579.63 336.192 579.93 336.498C580.236 336.804 580.389 337.176 580.389 337.614C580.389 338.058 580.236 338.436 579.93 338.748C579.63 339.054 579.252 339.207 578.796 339.207C578.346 339.207 577.971 339.054 577.671 338.748C577.371 338.436 577.221 338.058 577.221 337.614Z" fill="#EA760C"/>
<path d="M588.032 327.885V332.061H592.622V333.348H588.032V337.749H593.666V339H586.466V326.607H593.504L593.324 327.885H588.032Z" fill="#EA760C"/>
<path d="M605.026 330.414C605.026 331.38 604.819 332.154 604.405 332.736C603.997 333.318 603.433 333.741 602.713 334.005C601.993 334.269 601.165 334.401 600.229 334.401H598.645V339H597.079V326.607H600.247C601.723 326.607 602.887 326.916 603.739 327.534C604.597 328.152 605.026 329.112 605.026 330.414ZM603.352 330.432C603.352 329.796 603.226 329.289 602.974 328.911C602.722 328.533 602.374 328.263 601.93 328.101C601.492 327.933 600.994 327.849 600.436 327.849H598.645V333.141H600.373C600.949 333.141 601.462 333.063 601.912 332.907C602.362 332.751 602.713 332.478 602.965 332.088C603.223 331.692 603.352 331.14 603.352 330.432Z" fill="#EA760C"/>
<path d="M615.45 335.571C615.45 336.639 615.054 337.512 614.262 338.19C613.476 338.868 612.363 339.207 610.923 339.207C610.017 339.207 609.195 339.069 608.457 338.793C607.725 338.517 607.098 338.127 606.576 337.623L607.503 336.579C607.929 336.981 608.421 337.302 608.979 337.542C609.537 337.776 610.194 337.893 610.95 337.893C611.454 337.893 611.925 337.812 612.363 337.65C612.801 337.482 613.155 337.23 613.425 336.894C613.695 336.552 613.83 336.12 613.83 335.598C613.83 335.202 613.752 334.863 613.596 334.581C613.44 334.293 613.164 334.041 612.768 333.825C612.372 333.603 611.82 333.387 611.112 333.177C610.296 332.937 609.588 332.667 608.988 332.367C608.394 332.061 607.932 331.689 607.602 331.251C607.278 330.807 607.116 330.255 607.116 329.595C607.116 328.977 607.287 328.428 607.629 327.948C607.971 327.468 608.442 327.093 609.042 326.823C609.648 326.547 610.344 326.409 611.13 326.409C611.988 326.409 612.732 326.532 613.362 326.778C613.998 327.018 614.574 327.366 615.09 327.822L614.172 328.839C613.728 328.449 613.251 328.164 612.741 327.984C612.231 327.804 611.712 327.714 611.184 327.714C610.506 327.714 609.924 327.864 609.438 328.164C608.952 328.464 608.709 328.923 608.709 329.541C608.709 329.901 608.805 330.21 608.997 330.468C609.189 330.72 609.513 330.954 609.969 331.17C610.425 331.386 611.046 331.608 611.832 331.836C612.474 332.022 613.068 332.256 613.614 332.538C614.166 332.814 614.61 333.192 614.946 333.672C615.282 334.146 615.45 334.779 615.45 335.571Z" fill="#EA760C"/>
<path fill-rule="evenodd" clip-rule="evenodd" d="M542 345H562V329.914L553.086 321H542V345ZM553.5 320L563 329.5V346H541V320H553.5Z" fill="#EA760C"/>
<path fill-rule="evenodd" clip-rule="evenodd" d="M553.5 329.5V320H552.5V330.5H563V329.5H553.5Z" fill="#EA760C"/>
<path fill-rule="evenodd" clip-rule="evenodd" d="M777 306H663V360H777V306ZM662 305V361H778V305H662Z" fill="#368FE0"/>
<path d="M718.221 337.614C718.221 337.176 718.371 336.804 718.671 336.498C718.971 336.192 719.346 336.039 719.796 336.039C720.252 336.039 720.63 336.192 720.93 336.498C721.236 336.804 721.389 337.176 721.389 337.614C721.389 338.058 721.236 338.436 720.93 338.748C720.63 339.054 720.252 339.207 719.796 339.207C719.346 339.207 718.971 339.054 718.671 338.748C718.371 338.436 718.221 338.058 718.221 337.614Z" fill="#368FE0"/>
<path d="M735.233 330.414C735.233 331.38 735.026 332.154 734.612 332.736C734.204 333.318 733.64 333.741 732.92 334.005C732.2 334.269 731.372 334.401 730.436 334.401H728.852V339H727.286V326.607H730.454C731.93 326.607 733.094 326.916 733.946 327.534C734.804 328.152 735.233 329.112 735.233 330.414ZM733.559 330.432C733.559 329.796 733.433 329.289 733.181 328.911C732.929 328.533 732.581 328.263 732.137 328.101C731.699 327.933 731.201 327.849 730.643 327.849H728.852V333.141H730.58C731.156 333.141 731.669 333.063 732.119 332.907C732.569 332.751 732.92 332.478 733.172 332.088C733.43 331.692 733.559 331.14 733.559 330.432Z" fill="#368FE0"/>
<path d="M743.11 339L738.745 328.101C738.751 328.281 738.772 328.623 738.808 329.127C738.844 329.625 738.877 330.201 738.907 330.855C738.937 331.503 738.952 332.148 738.952 332.79V339H737.503V326.607H739.618L744.055 337.551C744.049 337.377 744.028 337.059 743.992 336.597C743.956 336.129 743.923 335.568 743.893 334.914C743.863 334.254 743.848 333.552 743.848 332.808V326.607H745.297V339H743.11Z" fill="#368FE0"/>
<path d="M752.436 339.207C750.966 339.207 749.793 338.676 748.917 337.614C748.047 336.546 747.612 334.941 747.612 332.799C747.612 331.731 747.753 330.798 748.035 330C748.323 329.202 748.713 328.536 749.205 328.002C749.697 327.468 750.252 327.069 750.87 326.805C751.488 326.541 752.13 326.409 752.796 326.409C753.606 326.409 754.278 326.526 754.812 326.76C755.346 326.988 755.856 327.324 756.342 327.768L755.397 328.749C754.659 328.059 753.795 327.714 752.805 327.714C752.205 327.714 751.635 327.873 751.095 328.191C750.561 328.509 750.126 329.037 749.79 329.775C749.454 330.513 749.286 331.521 749.286 332.799C749.286 334.599 749.565 335.898 750.123 336.696C750.681 337.494 751.5 337.893 752.58 337.893C753.42 337.893 754.206 337.695 754.938 337.299V333.519H752.499L752.31 332.223H756.486V338.127C755.928 338.433 755.331 338.691 754.695 338.901C754.065 339.105 753.312 339.207 752.436 339.207Z" fill="#368FE0"/>
<path fill-rule="evenodd" clip-rule="evenodd" d="M683 345H703V329.914L694.086 321H683V345ZM694.5 320L704 329.5V346H682V320H694.5Z" fill="#368FE0"/>
<path fill-rule="evenodd" clip-rule="evenodd" d="M694.5 329.5V320H693.5V330.5H704V329.5H694.5Z" fill="#368FE0"/>
<path fill-rule="evenodd" clip-rule="evenodd" d="M917 306H803V360H917V306ZM802 305V361H918V305H802Z" fill="#AB12F3"/>
<path d="M858.221 337.614C858.221 337.176 858.371 336.804 858.671 336.498C858.971 336.192 859.346 336.039 859.796 336.039C860.252 336.039 860.63 336.192 860.93 336.498C861.236 336.804 861.389 337.176 861.389 337.614C861.389 338.058 861.236 338.436 860.93 338.748C860.63 339.054 860.252 339.207 859.796 339.207C859.346 339.207 858.971 339.054 858.671 338.748C858.371 338.436 858.221 338.058 858.221 337.614Z" fill="#AB12F3"/>
<path d="M874.864 335.571C874.864 336.639 874.468 337.512 873.676 338.19C872.89 338.868 871.777 339.207 870.337 339.207C869.431 339.207 868.609 339.069 867.871 338.793C867.139 338.517 866.512 338.127 865.99 337.623L866.917 336.579C867.343 336.981 867.835 337.302 868.393 337.542C868.951 337.776 869.608 337.893 870.364 337.893C870.868 337.893 871.339 337.812 871.777 337.65C872.215 337.482 872.569 337.23 872.839 336.894C873.109 336.552 873.244 336.12 873.244 335.598C873.244 335.202 873.166 334.863 873.01 334.581C872.854 334.293 872.578 334.041 872.182 333.825C871.786 333.603 871.234 333.387 870.526 333.177C869.71 332.937 869.002 332.667 868.402 332.367C867.808 332.061 867.346 331.689 867.016 331.251C866.692 330.807 866.53 330.255 866.53 329.595C866.53 328.977 866.701 328.428 867.043 327.948C867.385 327.468 867.856 327.093 868.456 326.823C869.062 326.547 869.758 326.409 870.544 326.409C871.402 326.409 872.146 326.532 872.776 326.778C873.412 327.018 873.988 327.366 874.504 327.822L873.586 328.839C873.142 328.449 872.665 328.164 872.155 327.984C871.645 327.804 871.126 327.714 870.598 327.714C869.92 327.714 869.338 327.864 868.852 328.164C868.366 328.464 868.123 328.923 868.123 329.541C868.123 329.901 868.219 330.21 868.411 330.468C868.603 330.72 868.927 330.954 869.383 331.17C869.839 331.386 870.46 331.608 871.246 331.836C871.888 332.022 872.482 332.256 873.028 332.538C873.58 332.814 874.024 333.192 874.36 333.672C874.696 334.146 874.864 334.779 874.864 335.571Z" fill="#AB12F3"/>
<path d="M881.436 337.227L884.784 326.607H886.359L882.21 339H880.59L876.441 326.607H878.124L881.436 337.227Z" fill="#AB12F3"/>
<path d="M892.436 339.207C890.966 339.207 889.793 338.676 888.917 337.614C888.047 336.546 887.612 334.941 887.612 332.799C887.612 331.731 887.753 330.798 888.035 330C888.323 329.202 888.713 328.536 889.205 328.002C889.697 327.468 890.252 327.069 890.87 326.805C891.488 326.541 892.13 326.409 892.796 326.409C893.606 326.409 894.278 326.526 894.812 326.76C895.346 326.988 895.856 327.324 896.342 327.768L895.397 328.749C894.659 328.059 893.795 327.714 892.805 327.714C892.205 327.714 891.635 327.873 891.095 328.191C890.561 328.509 890.126 329.037 889.79 329.775C889.454 330.513 889.286 331.521 889.286 332.799C889.286 334.599 889.565 335.898 890.123 336.696C890.681 337.494 891.5 337.893 892.58 337.893C893.42 337.893 894.206 337.695 894.938 337.299V333.519H892.499L892.31 332.223H896.486V338.127C895.928 338.433 895.331 338.691 894.695 338.901C894.065 339.105 893.312 339.207 892.436 339.207Z" fill="#AB12F3"/>
<path fill-rule="evenodd" clip-rule="evenodd" d="M823 345H843V329.914L834.086 321H823V345ZM834.5 320L844 329.5V346H822V320H834.5Z" fill="#AB12F3"/>
<path fill-rule="evenodd" clip-rule="evenodd" d="M834.5 329.5V320H833.5V330.5H844V329.5H834.5Z" fill="#AB12F3"/>
</g>
<defs>
<clipPath id="clip0">
<rect width="1440" height="410" fill="white"/>
</clipPath>
</defs>
</svg>
